<?xml version="1.0" encoding="utf-8"?>
<!-- Generator: Adobe Illustrator 16.0.0, SVG Export Plug-In . SVG Version: 6.00 Build 0)  -->
<!DOCTYPE svg PUBLIC "-//W3C//DTD SVG 1.1//EN" "http://www.w3.org/Graphics/SVG/1.1/DTD/svg11.dtd">
<svg version="1.1" id="Layer_1" xmlns="http://www.w3.org/2000/svg" xmlns:xlink="http://www.w3.org/1999/xlink" x="0px" y="0px"
	 width="182.453px" height="193.917px" viewBox="0 0 182.453 193.917" enable-background="new 0 0 182.453 193.917"
	 xml:space="preserve">
<g>
	<defs>
		<rect id="SVGID_1_" width="182.453" height="193.917"/>
	</defs>
	<clipPath id="SVGID_2_">
		<use xlink:href="#SVGID_1_"  overflow="visible"/>
	</clipPath>
	<g clip-path="url(#SVGID_2_)">
		<text transform="matrix(1 0 0 1 97.0537 24.1816)"><tspan x="0" y="0" fill="#F85C5C" font-family="'OpenSans-Extrabold'" font-size="21.6541" letter-spacing="4">F</tspan><tspan x="15.982" y="0" fill="#F85C5C" font-family="'OpenSans-Extrabold'" font-size="21.6541" letter-spacing="4">RE</tspan><tspan x="51.183" y="0" fill="#F85C5C" font-family="'OpenSans-Extrabold'" font-size="21.6541">E</tspan></text>
	</g>
</g>
<g>
	<defs>
		<rect id="SVGID_3_" width="182.453" height="193.917"/>
	</defs>
	<clipPath id="SVGID_4_">
		<use xlink:href="#SVGID_3_"  overflow="visible"/>
	</clipPath>
	
		<rect x="1.5" y="147.448" clip-path="url(#SVGID_4_)" fill="none" stroke="#F85C5C" stroke-width="3" stroke-miterlimit="10" width="179.453" height="44.658"/>
	
		<rect x="76.565" y="2.41" clip-path="url(#SVGID_4_)" fill="none" stroke="#F85C5C" stroke-width="3" stroke-miterlimit="10" width="104.066" height="27.451"/>
</g>
<rect x="121.633" y="29.975" fill="none" stroke="#F85C5C" stroke-width="3" stroke-miterlimit="10" width="13.521" height="12.996"/>
<polygon fill="none" stroke="#F85C5C" stroke-width="3" stroke-miterlimit="10" points="62.701,49.937 62.701,62.228 22.14,62.228 
	22.14,49.937 8.619,49.937 8.619,87.22 76.221,87.22 76.221,49.937 "/>
<rect x="14.838" y="65.915" fill="none" stroke="#F85C5C" stroke-width="3" stroke-miterlimit="10" width="55.163" height="15.569"/>
<rect x="10.777" y="113.442" fill="#95A7B4" width="13.93" height="5.325"/>
<rect x="35.379" y="113.442" fill="#95A7B4" width="13.93" height="5.325"/>
<rect x="59.981" y="113.442" fill="#95A7B4" width="13.93" height="5.325"/>
<rect x="84.584" y="113.442" fill="#95A7B4" width="13.93" height="5.325"/>
<rect x="109.186" y="113.442" fill="#95A7B4" width="13.931" height="5.325"/>
<rect x="133.788" y="113.442" fill="#95A7B4" width="13.93" height="5.325"/>
<rect x="158.39" y="113.442" fill="#95A7B4" width="13.931" height="5.325"/>
<rect x="10.777" y="126.267" fill="#95A7B4" width="13.93" height="8.317"/>
<rect x="35.379" y="126.267" fill="#95A7B4" width="13.93" height="8.317"/>
<rect x="59.981" y="126.267" fill="#95A7B4" width="13.93" height="8.317"/>
<rect x="84.584" y="126.267" fill="#95A7B4" width="13.93" height="8.317"/>
<rect x="109.186" y="126.267" fill="#95A7B4" width="13.931" height="8.317"/>
<rect x="133.788" y="126.267" fill="#95A7B4" width="13.93" height="8.317"/>
<rect x="158.39" y="126.267" fill="#95A7B4" width="13.931" height="8.317"/>
<rect x="94.752" y="55.672" fill="none" stroke="#F85C5C" stroke-width="3" stroke-miterlimit="10" width="72.109" height="25.812"/>
<g>
	<defs>
		<rect id="SVGID_5_" width="182.453" height="193.917"/>
	</defs>
	<clipPath id="SVGID_6_">
		<use xlink:href="#SVGID_5_"  overflow="visible"/>
	</clipPath>
	<polygon clip-path="url(#SVGID_6_)" fill="none" stroke="#F85C5C" stroke-width="3" stroke-miterlimit="10" points="63.023,43.282 
		63.023,62.743 22.462,62.743 22.462,43.282 1.5,43.282 1.5,192.417 180.953,192.417 180.953,43.282 	"/>
	
		<rect x="22.278" y="2" clip-path="url(#SVGID_6_)" fill="none" stroke="#95A7B4" stroke-width="4" stroke-miterlimit="10" width="40.561" height="60.014"/>
	<path clip-path="url(#SVGID_6_)" fill="#95A7B4" d="M40.33,43.721c-2.94-0.134-5.773-0.792-8.499-1.974v-6.686
		c1.557,0.792,3.249,1.454,5.075,1.984c1.826,0.53,3.431,0.795,4.813,0.795c1.142,0,1.977-0.137,2.508-0.413
		c0.53-0.274,0.796-0.735,0.796-1.379c0-0.443-0.192-0.819-0.574-1.128c-0.383-0.309-1.021-0.658-1.914-1.047
		c-0.893-0.389-2.098-0.859-3.615-1.41c-1.705-0.631-3.081-1.339-4.128-2.125c-1.048-0.785-1.81-1.664-2.287-2.638
		c-0.476-0.973-0.715-2.185-0.715-3.635c0-2.216,0.712-3.948,2.135-5.196c1.423-1.249,3.558-2.021,6.405-2.316v-2.759H44.5v2.718
		c2.672,0.148,5.364,0.806,8.076,1.974l-2.397,5.74c-2.806-1.262-5.337-1.893-7.592-1.893c-1.075,0-1.83,0.131-2.266,0.392
		c-0.436,0.262-0.655,0.648-0.655,1.159c0,0.443,0.158,0.809,0.474,1.097c0.315,0.289,0.862,0.611,1.641,0.967
		s1.859,0.769,3.243,1.239c2.806,0.993,4.819,2.124,6.041,3.393c1.222,1.269,1.833,2.904,1.833,4.904
		c0,2.256-0.715,4.088-2.145,5.498c-1.429,1.41-3.514,2.283-6.253,2.618v3.887H40.33V43.721z"/>
	<path clip-path="url(#SVGID_6_)" fill="#F85C5C" d="M35.122,50.18c-0.364,0-0.733-0.085-1.078-0.264
		c-1.147-0.596-1.594-2.01-0.998-3.158l17.427-33.533c0.597-1.147,2.011-1.592,3.156-0.998c1.148,0.596,1.594,2.01,0.998,3.157
		L37.201,48.918C36.783,49.72,35.968,50.18,35.122,50.18"/>
	<rect x="72.217" y="169.183" clip-path="url(#SVGID_6_)" fill="#F85C5C" width="38.02" height="4.052"/>
</g>
</svg>
