<?xml version="1.0" encoding="utf-8"?>
<!-- Generator: Adobe Illustrator 16.0.0, SVG Export Plug-In . SVG Version: 6.00 Build 0)  -->
<!DOCTYPE svg PUBLIC "-//W3C//DTD SVG 1.1//EN" "http://www.w3.org/Graphics/SVG/1.1/DTD/svg11.dtd">
<svg version="1.1" id="Layer_1" xmlns="http://www.w3.org/2000/svg" xmlns:xlink="http://www.w3.org/1999/xlink" x="0px" y="0px"
	 width="129.06px" height="151.082px" viewBox="0 0 129.06 151.082" enable-background="new 0 0 129.06 151.082"
	 xml:space="preserve">
<g>
	<defs>
		<rect id="SVGID_1_" width="129.06" height="151.082"/>
	</defs>
	<clipPath id="SVGID_2_">
		<use xlink:href="#SVGID_1_"  overflow="visible"/>
	</clipPath>
	<path clip-path="url(#SVGID_2_)" fill="#95A7B4" d="M81.844,85.425l0.004,0.005c0,0-2.326-0.985-3.219-1.225
		c0,0,0.459-0.234,1.605,0.21c-0.392-0.297-0.808-0.647-1.245-1.048c-0.02-0.019-0.036-0.031-0.058-0.051
		c-1.441-1.305-3.909-2.534-3.909-2.534c0.5-0.127,1.163,0.12,1.801,0.481c-6.735-5.898-12.555,0.932-12.555,0.932h-0.093
		c0,0-5.819-6.83-12.554-0.932c0.638-0.361,1.3-0.608,1.8-0.481c0,0-2.467,1.229-3.909,2.534c-0.022,0.02-0.037,0.032-0.057,0.051
		c-0.437,0.4-0.853,0.751-1.245,1.048c1.146-0.444,1.606-0.21,1.606-0.21c-0.893,0.239-3.22,1.225-3.22,1.225l0.005-0.005
		c-3.839,1.886-4.966-1.727-4.966-1.727s1.291,12.019,11.27,7.512c0,0,8.78-5.932,11.316-3.119v0.001h0.001c0,0,0,0,0.001,0v-0.001
		C66.76,85.278,75.54,91.21,75.54,91.21c9.979,4.507,11.27-7.512,11.27-7.512S85.683,87.311,81.844,85.425"/>
	<path clip-path="url(#SVGID_2_)" fill="none" stroke="#95A7B4" stroke-width="3" stroke-miterlimit="10" d="M79.986,29.215
		c-1.225,0-2.473,0.164-3.713,0.487c-2.779-3.832-7.231-6.112-11.954-6.112c-4.677,0-9.105,2.249-11.888,6.026
		c-1.135-0.266-2.263-0.401-3.358-0.401c-8.144,0-14.77,6.625-14.77,14.769c0,7.14,5.259,13.343,12.276,14.542v10.023
		c0,1.629,1.325,2.954,2.954,2.954H79.53c1.629,0,2.954-1.325,2.954-2.954v-9.884c7.24-0.748,12.272-6.742,12.272-14.681
		C94.757,35.84,88.131,29.215,79.986,29.215z"/>
	<path clip-path="url(#SVGID_2_)" fill="none" stroke="#F85C5C" stroke-width="3" stroke-miterlimit="10" d="M17.353,117.877
		c-8.755,0-15.852,7.098-15.852,15.853s7.097,15.853,15.852,15.853H127.56c-8.755,0-15.853-7.097-15.853-15.852
		c0-8.756,7.098-15.854,15.853-15.854V1.499H17.353C8.597,1.499,1.5,8.597,1.5,17.352c0-0.001,0,116.378,0,116.378"/>
	
		<line clip-path="url(#SVGID_2_)" fill="none" stroke="#F85C5C" stroke-width="3" stroke-miterlimit="10" x1="17.353" y1="117.877" x2="127.56" y2="117.877"/>
	<path clip-path="url(#SVGID_2_)" fill="#F85C5C" d="M112.25,138.67H9.656c0.311,1.049,0.721,2.054,1.23,3h102.549
		C112.878,140.749,112.483,139.731,112.25,138.67"/>
	<path clip-path="url(#SVGID_2_)" fill="#F85C5C" d="M112.017,135.662c-0.313-0.963-0.482-1.978-0.514-2.997H9.073
		c-0.046,0.494-0.075,0.994-0.075,1.5s0.029,1.006,0.075,1.5h102.943C112.017,135.664,112.017,135.663,112.017,135.662"/>
	<path clip-path="url(#SVGID_2_)" fill="#F85C5C" d="M113.142,126.66H10.886c-0.51,0.945-0.919,1.951-1.23,3h102.165
		C112.093,128.589,112.536,127.572,113.142,126.66"/>
	<path clip-path="url(#SVGID_2_)" fill="#F85C5C" d="M10.886,141.67c-0.509-0.946-0.919-1.951-1.23-3"/>
	<path clip-path="url(#SVGID_2_)" fill="#F85C5C" d="M9.073,135.665c-0.047-0.494-0.076-0.994-0.076-1.5s0.029-1.006,0.076-1.5"/>
	<path clip-path="url(#SVGID_2_)" fill="#F85C5C" d="M9.657,129.66c0.311-1.049,0.72-2.055,1.23-3"/>
</g>
<polyline fill="none" stroke="#F85C5C" stroke-width="3" stroke-linecap="round" stroke-miterlimit="10" points="55.324,52.702 
	44.979,45.539 55.324,38.529 "/>
<polyline fill="none" stroke="#F85C5C" stroke-width="3" stroke-linecap="round" stroke-miterlimit="10" points="73.121,52.702 
	83.466,45.539 73.121,38.529 "/>
<line fill="none" stroke="#F85C5C" stroke-width="3" stroke-linecap="round" stroke-miterlimit="10" x1="70.031" y1="34.849" x2="58.865" y2="56.336"/>
</svg>
