<?xml version="1.0" encoding="utf-8"?>
<!-- Generator: Adobe Illustrator 16.0.0, SVG Export Plug-In . SVG Version: 6.00 Build 0)  -->
<!DOCTYPE svg PUBLIC "-//W3C//DTD SVG 1.1//EN" "http://www.w3.org/Graphics/SVG/1.1/DTD/svg11.dtd">
<svg version="1.1" id="Layer_1" xmlns="http://www.w3.org/2000/svg" xmlns:xlink="http://www.w3.org/1999/xlink" x="0px" y="0px"
	 width="250.14px" height="179.157px" viewBox="0 0 250.14 179.157" enable-background="new 0 0 250.14 179.157"
	 xml:space="preserve">
<g>
	<defs>
		<rect id="SVGID_1_" width="250.14" height="179.157"/>
	</defs>
	<clipPath id="SVGID_2_">
		<use xlink:href="#SVGID_1_"  overflow="visible"/>
	</clipPath>
	
		<rect x="6.165" y="8.461" transform="matrix(0.9983 -0.059 0.059 0.9983 -5.0681 7.5365)" clip-path="url(#SVGID_2_)" fill="none" stroke="#F85C5C" stroke-width="3" stroke-miterlimit="10" width="237.809" height="162.235"/>
</g>
<text transform="matrix(0.9983 -0.059 0.059 0.9983 22.3711 42.4058)" fill="#95A7B4" font-family="'OpenSans-Extrabold'" font-size="19.7957">COME ON IN, WE’RE</text>
<text transform="matrix(0.9983 -0.059 0.059 0.9983 23.0664 115.2939)" fill="#95A7B4" font-family="'OpenSans-Extrabold'" font-size="72.8095">OPEN</text>
<g>
	<defs>
		<rect id="SVGID_3_" width="250.14" height="179.157"/>
	</defs>
	<clipPath id="SVGID_4_">
		<use xlink:href="#SVGID_3_"  overflow="visible"/>
	</clipPath>
	<g clip-path="url(#SVGID_4_)">
		
			<text transform="matrix(0.9983 -0.059 0.059 0.9983 27.2002 160.8789)" fill="#95A7B4" font-family="'OpenSans-Extrabold'" font-size="49.9142">SOURCE</text>
	</g>
</g>
<line fill="none" stroke="#F85C5C" stroke-width="3" stroke-linecap="round" stroke-miterlimit="10" x1="23.793" y1="51.355" x2="23.793" y2="51.355"/>
<path fill="#F85C5C" d="M27.28,51.147c-0.05-0.83,0.58-1.53,1.4-1.58l0,0c0.01,0,0.02,0,0.02-0.01l0,0c0.01,0,0.02,0,0.02,0l0,0
	c0.83-0.05,1.54,0.59,1.59,1.41l0,0c0.04,0.83-0.58,1.54-1.41,1.59l0,0c-0.01,0-0.01,0-0.02,0l0,0c0,0-0.01,0-0.02,0l0,0
	c-0.03,0-0.06,0-0.09,0l0,0C27.99,52.557,27.32,51.947,27.28,51.147z M32.25,50.857c-0.04-0.83,0.59-1.54,1.41-1.59l0,0
	c0.01,0,0.01,0,0.02,0l0,0c0.01,0,0.01,0,0.02,0l0,0c0.83-0.05,1.54,0.58,1.59,1.41l0,0c0.04,0.83-0.59,1.54-1.41,1.58l0,0
	c-0.01,0-0.02,0-0.02,0l0,0c-0.01,0-0.01,0.01-0.02,0.01l0,0c-0.03,0-0.06,0-0.09,0l0,0C32.96,52.267,32.3,51.647,32.25,50.857z
	 M37.23,50.557c-0.04-0.82,0.59-1.53,1.41-1.58l0,0c0.01,0,0.01,0,0.02,0l0,0c0.01,0,0.01,0,0.02,0l0,0
	c0.83-0.05,1.54,0.58,1.58,1.4l0,0c0.05,0.83-0.58,1.54-1.4,1.59l0,0c-0.01,0-0.02,0-0.02,0l0,0c-0.01,0-0.01,0-0.02,0l0,0
	c-0.03,0-0.06,0.01-0.09,0.01l0,0C37.94,51.967,37.28,51.357,37.23,50.557z M42.21,50.267c-0.05-0.83,0.59-1.54,1.41-1.59l0,0
	c0.01,0,0.02,0,0.02,0l0,0c0.01,0,0.01,0,0.02,0l0,0c0.83-0.05,1.54,0.58,1.58,1.41l0,0c0.05,0.83-0.58,1.54-1.4,1.59l0,0
	c-0.01,0-0.02,0-0.02,0l0,0c-0.01,0-0.01,0-0.02,0l0,0c-0.03,0-0.06,0-0.09,0l0,0C42.92,51.677,42.26,51.067,42.21,50.267z
	 M47.19,49.967c-0.05-0.82,0.59-1.53,1.41-1.58l0,0c0.01,0,0.02,0,0.02,0l0,0c0.01,0,0.01,0,0.02,0l0,0
	c0.83-0.05,1.53,0.58,1.58,1.4l0,0c0.05,0.83-0.58,1.54-1.4,1.59l0,0c-0.01,0-0.02,0-0.02,0l0,0c-0.01,0-0.01,0-0.02,0l0,0
	c-0.03,0-0.06,0.01-0.09,0.01l0,0C47.9,51.387,47.24,50.767,47.19,49.967z M52.17,49.677c-0.05-0.83,0.58-1.54,1.41-1.59l0,0
	c0.01,0,0.02,0,0.02,0l0,0c0.01,0,0.01,0,0.02,0l0,0c0.82-0.05,1.53,0.58,1.58,1.41l0,0c0.05,0.83-0.58,1.54-1.41,1.59l0,0
	c0,0-0.01,0-0.02,0l0,0h-0.01l0,0c-0.03,0-0.06,0-0.09,0l0,0C52.88,51.087,52.22,50.477,52.17,49.677z M57.15,49.387
	c-0.05-0.83,0.58-1.54,1.41-1.59l0,0c0.01,0,0.01,0,0.02,0l0,0c0,0,0.01,0,0.02,0l0,0c0.82-0.05,1.53,0.58,1.58,1.41l0,0
	c0.05,0.82-0.58,1.53-1.41,1.58l0,0h-0.01l0,0c-0.01,0-0.02,0-0.02,0l0,0c-0.03,0.01-0.06,0.01-0.09,0.01l0,0
	C57.86,50.797,57.2,50.177,57.15,49.387z M62.13,49.087c-0.05-0.83,0.58-1.54,1.41-1.58l0,0c0.01,0,0.01,0,0.02,0l0,0
	c0,0,0.01-0.01,0.02-0.01l0,0c0.82-0.05,1.53,0.59,1.58,1.41l0,0c0.05,0.83-0.58,1.54-1.41,1.59l0,0c-0.03,0-0.07,0-0.1,0l0,0
	c-0.01,0-0.02,0-0.02,0l0,0C62.84,50.497,62.18,49.887,62.13,49.087z M67.11,48.797c-0.05-0.83,0.58-1.54,1.41-1.59l0,0
	c0.01,0,0.01,0,0.02,0l0,0c0.01,0,0.01,0,0.02,0l0,0c0.82-0.05,1.53,0.58,1.58,1.41l0,0c0.05,0.83-0.58,1.53-1.41,1.58l0,0
	c0,0-0.01,0-0.02,0l0,0c0,0.01-0.01,0.01-0.01,0.01l0,0c-0.03,0-0.06,0-0.09,0l0,0C67.82,50.207,67.16,49.587,67.11,48.797z
	 M72.09,48.497c-0.05-0.83,0.58-1.53,1.41-1.58l0,0c0,0,0.01,0,0.02,0l0,0c0-0.01,0.01-0.01,0.01-0.01l0,0
	c0.83-0.04,1.54,0.59,1.59,1.41l0,0c0.05,0.83-0.58,1.54-1.41,1.59l0,0c0,0-0.01,0-0.02,0l0,0h-0.01l0,0c-0.04,0-0.07,0-0.1,0l0,0
	C72.8,49.907,72.14,49.297,72.09,48.497z M77.07,48.207c-0.05-0.83,0.58-1.54,1.41-1.59l0,0h0.01l0,0c0.01,0,0.02,0,0.02,0l0,0
	c0.83-0.05,1.54,0.58,1.59,1.41l0,0c0.05,0.82-0.58,1.54-1.41,1.59l0,0c-0.01,0-0.01,0-0.02,0l0,0c0,0-0.01,0-0.02,0l0,0
	c-0.02,0-0.05,0-0.08,0l0,0C77.78,49.617,77.12,49.007,77.07,48.207z M82.05,47.907c-0.05-0.82,0.58-1.53,1.41-1.58l0,0
	c0,0,0.01,0,0.02,0l0,0h0.01l0,0c0.83-0.05,1.54,0.58,1.59,1.4l0,0c0.05,0.83-0.58,1.54-1.41,1.59l0,0c0,0-0.01,0-0.02,0l0,0
	c0,0-0.01,0-0.02,0l0,0c-0.03,0-0.06,0.01-0.09,0.01l0,0C82.76,49.327,82.1,48.707,82.05,47.907z M87.03,47.617
	c-0.05-0.83,0.58-1.54,1.41-1.59l0,0c0,0,0.01,0,0.02,0l0,0h0.01l0,0c0.83-0.05,1.54,0.58,1.59,1.41l0,0
	c0.05,0.83-0.58,1.54-1.41,1.59l0,0c-0.01,0-0.01,0-0.02,0l0,0c-0.01,0-0.01,0-0.02,0l0,0c-0.03,0-0.06,0-0.09,0l0,0
	C87.73,49.027,87.07,48.407,87.03,47.617z M92.01,47.327c-0.05-0.83,0.58-1.54,1.41-1.59l0,0h0.01l0,0c0.01,0,0.01,0,0.02,0l0,0
	c0.83-0.05,1.54,0.58,1.59,1.41l0,0c0.05,0.82-0.58,1.53-1.41,1.58l0,0c-0.01,0-0.01,0-0.02,0l0,0c-0.01,0-0.01,0-0.02,0l0,0
	c-0.03,0.01-0.06,0.01-0.09,0.01l0,0C92.72,48.737,92.05,48.117,92.01,47.327z M96.99,47.027c-0.05-0.83,0.58-1.54,1.41-1.59l0,0
	h0.01l0,0c0.01,0,0.01,0,0.02,0l0,0c0.83-0.05,1.54,0.58,1.59,1.41l0,0c0.05,0.83-0.59,1.54-1.41,1.59l0,0c-0.01,0-0.01,0-0.02,0
	l0,0c-0.01,0-0.01,0-0.02,0l0,0c-0.03,0-0.06,0-0.09,0l0,0C97.69,48.437,97.03,47.827,96.99,47.027z M101.97,46.737
	c-0.05-0.83,0.58-1.54,1.4-1.59l0,0c0.01,0,0.02,0,0.03,0l0,0h0.01l0,0c0.83-0.05,1.54,0.58,1.59,1.41l0,0
	c0.04,0.8-0.55,1.5-1.35,1.58l0,0c-0.03,0-0.07,0-0.1,0.01l0,0c-0.03,0-0.06,0-0.09,0l0,0
	C102.67,48.147,102.01,47.537,101.97,46.737z M106.94,46.437c-0.04-0.83,0.59-1.53,1.41-1.58l0,0c0.01,0,0.02,0,0.02,0l0,0
	c0.01-0.01,0.01-0.01,0.02-0.01l0,0c0.83-0.05,1.54,0.59,1.59,1.41l0,0c0.04,0.83-0.59,1.54-1.41,1.59l0,0c-0.01,0-0.02,0-0.02,0
	l0,0c-0.01,0-0.01,0-0.02,0l0,0c-0.03,0-0.06,0-0.09,0l0,0C107.65,47.847,106.99,47.237,106.94,46.437z M111.92,46.147
	c-0.04-0.83,0.59-1.54,1.41-1.59l0,0c0.04,0,0.07,0,0.1,0l0,0c0.8-0.01,1.48,0.6,1.52,1.41l0,0c0.05,0.83-0.58,1.54-1.41,1.58l0,0
	h-0.01l0,0c-0.01,0.01-0.01,0.01-0.02,0.01l0,0c-0.03,0-0.06,0-0.09,0l0,0C112.63,47.557,111.97,46.937,111.92,46.147z
	 M116.9,45.847c-0.05-0.82,0.59-1.53,1.41-1.58l0,0c0.01,0,0.01,0,0.02,0l0,0c0.01,0,0.01,0,0.02,0l0,0
	c0.83-0.05,1.54,0.58,1.58,1.41l0,0c0.05,0.82-0.58,1.53-1.41,1.58l0,0h-0.01l0,0c-0.01,0-0.01,0-0.02,0l0,0
	c-0.03,0-0.06,0.01-0.09,0.01l0,0C117.61,47.267,116.95,46.647,116.9,45.847z M121.88,45.557c-0.05-0.83,0.59-1.54,1.41-1.59l0,0
	c0.01,0,0.02,0,0.02,0l0,0c0.01,0,0.01,0,0.02,0l0,0c0.83-0.05,1.53,0.58,1.58,1.41l0,0c0.05,0.83-0.58,1.54-1.41,1.59l0,0h-0.01
	l0,0c-0.01,0-0.01,0-0.02,0l0,0c-0.03,0-0.06,0-0.09,0l0,0C122.59,46.967,121.93,46.357,121.88,45.557z M126.859,45.267
	c-0.05-0.83,0.58-1.54,1.41-1.59l0,0c0.011,0,0.011,0,0.021,0l0,0c0,0,0.01,0,0.02,0l0,0c0.82-0.05,1.53,0.58,1.58,1.4l0,0
	c0.05,0.81-0.55,1.51-1.35,1.59l0,0c-0.03,0-0.061,0-0.09,0l0,0c-0.03,0.01-0.061,0.01-0.091,0.01l0,0
	C127.569,46.677,126.91,46.057,126.859,45.267z M131.84,44.967c-0.05-0.83,0.58-1.54,1.41-1.59l0,0c0.01,0,0.01,0,0.02,0l0,0
	c0,0,0.011,0,0.021,0l0,0c0.819-0.05,1.529,0.58,1.58,1.41l0,0c0.05,0.83-0.58,1.54-1.41,1.59l0,0h-0.01l0,0
	c-0.011,0-0.021,0-0.021,0l0,0c-0.03,0-0.06,0-0.09,0l0,0C132.55,46.377,131.89,45.767,131.84,44.967z M136.819,44.677
	c-0.05-0.83,0.58-1.54,1.41-1.59l0,0c0,0,0.011,0,0.021,0l0,0c0.01,0,0.01,0,0.02,0l0,0c0.82-0.05,1.53,0.58,1.58,1.41l0,0
	c0.05,0.82-0.58,1.53-1.41,1.58l0,0c0,0-0.01,0-0.02,0l0,0c-0.01,0-0.01,0-0.021,0l0,0c-0.029,0.01-0.06,0.01-0.09,0.01l0,0
	C137.53,46.087,136.87,45.467,136.819,44.677z M141.8,44.377c-0.05-0.82,0.58-1.54,1.41-1.58l0,0h0.01l0,0
	c0.01,0,0.021-0.01,0.021-0.01l0,0c0.829-0.05,1.54,0.59,1.59,1.41l0,0c0.05,0.83-0.58,1.54-1.41,1.59l0,0c-0.01,0-0.01,0-0.021,0
	l0,0c0,0-0.01,0-0.02,0l0,0c-0.03,0-0.05,0-0.08,0l0,0C142.51,45.787,141.85,45.177,141.8,44.377z M146.78,44.087
	c-0.051-0.83,0.579-1.54,1.409-1.59l0,0h0.011l0,0c0.01,0,0.02,0,0.02,0l0,0c0.83-0.05,1.54,0.58,1.59,1.41l0,0
	c0.05,0.83-0.58,1.53-1.41,1.58l0,0c-0.01,0-0.01,0-0.02,0l0,0c0,0.01-0.01,0.01-0.021,0.01l0,0c-0.029,0-0.05,0-0.079,0l0,0
	C147.49,45.497,146.819,44.877,146.78,44.087z M151.76,43.787c-0.05-0.8,0.55-1.5,1.35-1.58l0,0c0.03,0,0.061,0,0.091-0.01l0,0
	c0.83-0.04,1.54,0.59,1.59,1.41l0,0c0.05,0.83-0.58,1.54-1.41,1.59l0,0c-0.01,0-0.01,0-0.021,0l0,0c0,0-0.01,0-0.02,0l0,0
	c-0.03,0-0.06,0-0.09,0l0,0C152.47,45.197,151.8,44.587,151.76,43.787z M156.74,43.497c-0.051-0.83,0.579-1.54,1.409-1.59l0,0h0.011
	l0,0c0.01,0,0.02,0,0.02,0l0,0c0.83-0.05,1.54,0.58,1.59,1.41l0,0c0.05,0.83-0.58,1.54-1.41,1.59l0,0c-0.01,0-0.01,0-0.02,0l0,0
	c0,0-0.01,0-0.021,0l0,0c-0.029,0-0.05,0-0.079,0l0,0C157.45,44.907,156.78,44.297,156.74,43.497z M161.72,43.197
	c-0.05-0.82,0.58-1.53,1.41-1.58l0,0c0,0,0.01,0,0.02,0l0,0h0.011l0,0c0.83-0.05,1.54,0.58,1.59,1.41l0,0
	c0.05,0.82-0.58,1.53-1.41,1.58l0,0c-0.01,0-0.021,0-0.021,0l0,0c-0.01,0-0.01,0-0.02,0l0,0c-0.03,0.01-0.06,0.01-0.09,0.01l0,0
	C162.42,44.617,161.76,43.997,161.72,43.197z M166.7,42.907c-0.051-0.83,0.58-1.54,1.399-1.58l0,0c0.01-0.01,0.021-0.01,0.021-0.01
	l0,0c0.01,0,0.01,0,0.02,0l0,0c0.83-0.05,1.54,0.58,1.59,1.41l0,0c0.051,0.83-0.59,1.54-1.41,1.59l0,0c-0.01,0-0.01,0-0.02,0l0,0
	c-0.01,0-0.01,0-0.02,0l0,0c-0.03,0-0.061,0-0.091,0l0,0C167.399,44.317,166.74,43.707,166.7,42.907z M171.68,42.617
	c-0.05-0.83,0.58-1.54,1.4-1.59l0,0c0.01,0,0.02,0,0.02,0l0,0c0.01,0,0.01,0,0.021,0l0,0c0.83-0.05,1.54,0.58,1.59,1.41l0,0
	c0.04,0.82-0.59,1.53-1.41,1.58l0,0c-0.01,0-0.01,0-0.02,0l0,0c-0.011,0-0.011,0-0.021,0l0,0c-0.03,0.01-0.06,0.01-0.09,0.01l0,0
	C172.38,44.027,171.72,43.407,171.68,42.617z M176.649,42.317c-0.04-0.81,0.561-1.5,1.36-1.58l0,0c0.03,0,0.06-0.01,0.09-0.01l0,0
	c0.83-0.05,1.54,0.58,1.59,1.41l0,0c0.04,0.83-0.59,1.54-1.409,1.59l0,0c-0.011,0-0.021,0-0.03,0l0,0h-0.01l0,0
	c-0.03,0-0.061,0-0.091,0l0,0C177.359,43.727,176.7,43.117,176.649,42.317z M181.63,42.027c-0.04-0.83,0.59-1.54,1.41-1.59l0,0
	c0.01,0,0.02,0,0.02,0l0,0c0.01,0,0.01,0,0.021,0l0,0c0.83-0.05,1.54,0.58,1.59,1.41l0,0c0.04,0.82-0.59,1.53-1.41,1.58l0,0
	c-0.01,0-0.02,0.01-0.03,0.01l0,0h-0.01l0,0c-0.03,0-0.06,0-0.09,0l0,0C182.34,43.437,181.68,42.827,181.63,42.027z M186.609,41.727
	c-0.05-0.82,0.58-1.53,1.41-1.58l0,0c0.011,0,0.011,0,0.021,0l0,0c0.01,0,0.01-0.01,0.02-0.01l0,0c0.83-0.04,1.54,0.59,1.58,1.41
	l0,0c0.05,0.83-0.58,1.54-1.41,1.59l0,0h-0.01l0,0c-0.01,0-0.01,0-0.02,0l0,0c-0.03,0-0.061,0-0.091,0l0,0
	C187.319,43.137,186.66,42.527,186.609,41.727z M191.59,41.437c-0.05-0.83,0.58-1.54,1.41-1.59l0,0c0.01,0,0.02,0,0.02,0l0,0
	c0.011,0,0.011,0,0.021,0l0,0c0.819-0.05,1.529,0.58,1.58,1.41l0,0c0.05,0.83-0.58,1.54-1.41,1.58l0,0c0,0-0.01,0.01-0.021,0.01l0,0
	h-0.01l0,0c-0.03,0-0.06,0-0.09,0l0,0C192.3,42.847,191.64,42.227,191.59,41.437z M196.569,41.137c-0.05-0.82,0.58-1.53,1.41-1.58
	l0,0c0.011,0,0.011,0,0.021,0l0,0c0.01,0,0.01,0,0.02,0l0,0c0.82-0.05,1.53,0.58,1.58,1.41l0,0c0.05,0.82-0.58,1.53-1.41,1.58l0,0
	c0,0-0.01,0-0.02,0l0,0h-0.01l0,0c-0.03,0.01-0.061,0.01-0.091,0.01l0,0C197.28,42.557,196.62,41.937,196.569,41.137z
	 M201.55,40.847c-0.05-0.81,0.55-1.5,1.35-1.58l0,0c0.03,0,0.061-0.01,0.101-0.01l0,0c0.819-0.05,1.53,0.58,1.58,1.41l0,0
	c0.05,0.83-0.58,1.54-1.41,1.59l0,0h-0.01l0,0c-0.011,0-0.021,0-0.021,0l0,0c-0.03,0-0.06,0-0.09,0l0,0
	C202.26,42.257,201.6,41.647,201.55,40.847z M206.53,40.557c-0.051-0.83,0.579-1.54,1.409-1.59l0,0c0,0,0.011,0,0.021,0l0,0
	c0,0,0.01,0,0.02,0l0,0c0.82-0.05,1.53,0.58,1.58,1.41l0,0c0.05,0.8-0.55,1.5-1.35,1.58l0,0c-0.03,0-0.061,0-0.09,0.01l0,0
	c-0.03,0-0.061,0-0.09,0l0,0C207.24,41.967,206.58,41.347,206.53,40.557z M211.51,40.257c-0.05-0.83,0.58-1.54,1.41-1.58l0,0
	c0.01-0.01,0.01-0.01,0.02-0.01l0,0h0.011l0,0c0.83-0.04,1.54,0.58,1.59,1.41l0,0c0.05,0.83-0.58,1.54-1.41,1.59l0,0h-0.01l0,0
	c-0.011,0-0.021,0-0.021,0l0,0c-0.03,0-0.06,0-0.09,0l0,0C212.22,41.667,211.56,41.057,211.51,40.257z"/>
<line fill="none" stroke="#F85C5C" stroke-width="3" stroke-linecap="round" stroke-miterlimit="10" x1="218.006" y1="39.875" x2="218.006" y2="39.875"/>
</svg>
